<svg width="187" height="48" viewBox="0 0 187 48" fill="none" xmlns="http://www.w3.org/2000/svg">
<path d="M14.472 32.5V25.348C14.472 24.628 14.304 24.044 13.968 23.596C13.632 23.148 13.184 22.924 12.624 22.924C12.048 22.924 11.568 23.164 11.184 23.644C10.816 24.124 10.632 24.724 10.632 25.444V32.5H7.512V25.396C7.512 24.916 7.48 24.524 7.416 24.22C7.352 23.916 7.24 23.676 7.08 23.5C6.936 23.324 6.744 23.204 6.504 23.14C6.264 23.06 5.976 23.02 5.64 23.02C4.376 23.02 3.744 23.788 3.744 25.324V32.5H0.624V20.692H3.552V22.42C3.952 21.636 4.432 21.1 4.992 20.812C5.552 20.524 6.224 20.38 7.008 20.38C7.408 20.38 7.76 20.412 8.064 20.476C8.384 20.54 8.664 20.652 8.904 20.812C9.16 20.956 9.4 21.148 9.624 21.388C9.848 21.628 10.072 21.916 10.296 22.252C10.616 21.596 11.04 21.124 11.568 20.836C12.096 20.532 12.736 20.38 13.488 20.38C14.08 20.38 14.624 20.484 15.12 20.692C15.616 20.884 16.04 21.164 16.392 21.532C16.744 21.884 17.016 22.3 17.208 22.78C17.416 23.26 17.52 23.772 17.52 24.316V32.5H14.472ZM25.9406 26.716C25.7806 26.876 25.5486 27.004 25.2446 27.1C24.9406 27.196 24.5006 27.3 23.9246 27.412C23.0286 27.588 22.4126 27.812 22.0766 28.084C21.7406 28.356 21.5726 28.748 21.5726 29.26C21.5726 30.14 22.0766 30.58 23.0846 30.58C23.4846 30.58 23.8526 30.516 24.1886 30.388C24.5406 30.244 24.8366 30.06 25.0766 29.836C25.3326 29.596 25.5326 29.324 25.6766 29.02C25.8366 28.7 25.9166 28.364 25.9166 28.012L25.9406 26.716ZM26.1566 32.5C26.0606 32.196 25.9966 31.844 25.9646 31.444C25.5966 31.86 25.1086 32.196 24.5006 32.452C23.8926 32.692 23.1886 32.812 22.3886 32.812C21.0286 32.812 20.0286 32.516 19.3886 31.924C18.7646 31.316 18.4526 30.532 18.4526 29.572C18.4526 28.724 18.5886 28.052 18.8606 27.556C19.1326 27.044 19.5086 26.644 19.9886 26.356C20.4686 26.068 21.0366 25.86 21.6926 25.732C22.3646 25.588 23.0926 25.46 23.8766 25.348C24.6606 25.236 25.1886 25.092 25.4606 24.916C25.7326 24.724 25.8686 24.42 25.8686 24.004C25.8686 23.62 25.6846 23.324 25.3166 23.116C24.9646 22.892 24.4846 22.78 23.8766 22.78C23.1566 22.78 22.6366 22.94 22.3166 23.26C22.0126 23.58 21.8206 24.004 21.7406 24.532H18.8366C18.8526 23.924 18.9486 23.364 19.1246 22.852C19.3166 22.34 19.6126 21.9 20.0126 21.532C20.4286 21.164 20.9646 20.884 21.6206 20.692C22.2766 20.484 23.0766 20.38 24.0206 20.38C24.9486 20.38 25.7326 20.484 26.3726 20.692C27.0286 20.9 27.5486 21.204 27.9326 21.604C28.3326 21.988 28.6206 22.476 28.7966 23.068C28.9726 23.644 29.0606 24.3 29.0606 25.036V32.5H26.1566ZM35.9833 30.148C36.7513 30.148 37.3833 29.86 37.8793 29.284C38.3913 28.692 38.6473 27.892 38.6473 26.884C38.6473 24.356 37.7593 23.092 35.9833 23.092C34.2073 23.092 33.3193 24.292 33.3193 26.692C33.3193 27.748 33.5673 28.588 34.0633 29.212C34.5753 29.836 35.2153 30.148 35.9833 30.148ZM38.5513 30.916C38.3273 31.444 37.9193 31.86 37.3273 32.164C36.7513 32.452 36.0793 32.596 35.3113 32.596C34.3353 32.596 33.5113 32.428 32.8393 32.092C32.1833 31.74 31.6473 31.284 31.2313 30.724C30.8313 30.164 30.5353 29.516 30.3433 28.78C30.1673 28.044 30.0793 27.292 30.0793 26.524C30.0793 25.612 30.2153 24.78 30.4873 24.028C30.7593 23.26 31.1273 22.612 31.5913 22.084C32.0553 21.54 32.5993 21.124 33.2233 20.836C33.8473 20.532 34.5193 20.38 35.2393 20.38C36.7113 20.38 37.8153 20.972 38.5513 22.156V20.692H41.6713V32.62C41.6713 33.516 41.5193 34.3 41.2153 34.972C40.9113 35.66 40.4953 36.228 39.9673 36.676C39.4393 37.14 38.8153 37.492 38.0953 37.732C37.3753 37.972 36.6073 38.092 35.7913 38.092C34.9753 38.092 34.2153 37.972 33.5113 37.732C32.8073 37.508 32.1993 37.18 31.6873 36.748C31.1913 36.332 30.7993 35.82 30.5113 35.212C30.2233 34.604 30.0793 33.916 30.0793 33.148H32.9833C32.9833 33.868 33.2153 34.42 33.6793 34.804C34.1593 35.204 34.7913 35.404 35.5753 35.404C36.4073 35.404 37.1113 35.172 37.6873 34.708C38.2633 34.26 38.5513 33.644 38.5513 32.86V30.916ZM50.7047 25.444C50.6887 25.012 50.6087 24.636 50.4647 24.316C50.3367 23.98 50.1607 23.708 49.9367 23.5C49.7127 23.276 49.4567 23.116 49.1687 23.02C48.8807 22.908 48.5847 22.852 48.2807 22.852C47.6567 22.852 47.1127 23.084 46.6487 23.548C46.2007 23.996 45.9447 24.628 45.8807 25.444H50.7047ZM45.7847 27.412C45.8327 28.308 46.0887 29.02 46.5527 29.548C47.0327 30.076 47.6567 30.34 48.4247 30.34C48.9367 30.34 49.3847 30.228 49.7687 30.004C50.1687 29.764 50.4247 29.436 50.5367 29.02H53.7527C53.3847 30.236 52.7447 31.172 51.8327 31.828C50.9207 32.484 49.8327 32.812 48.5687 32.812C44.6327 32.812 42.6647 30.668 42.6647 26.38C42.6647 25.468 42.7927 24.644 43.0487 23.908C43.3047 23.172 43.6727 22.54 44.1527 22.012C44.6487 21.484 45.2487 21.084 45.9527 20.812C46.6567 20.524 47.4647 20.38 48.3767 20.38C50.2007 20.38 51.5767 20.964 52.5047 22.132C53.4487 23.3 53.9207 25.06 53.9207 27.412H45.7847ZM54.8818 32.5V20.692H57.8098V22.108C58.0658 21.708 58.3298 21.396 58.6018 21.172C58.8898 20.948 59.1778 20.78 59.4658 20.668C59.7698 20.54 60.0738 20.46 60.3778 20.428C60.6818 20.396 60.9938 20.38 61.3138 20.38H61.7218V23.572C61.4338 23.524 61.1458 23.5 60.8578 23.5C58.9538 23.5 58.0018 24.452 58.0018 26.356V32.5H54.8818ZM76.3001 32.5V25.348C76.3001 24.628 76.1321 24.044 75.7961 23.596C75.4601 23.148 75.0121 22.924 74.4521 22.924C73.8761 22.924 73.3961 23.164 73.0121 23.644C72.6441 24.124 72.4601 24.724 72.4601 25.444V32.5H69.3401V25.396C69.3401 24.916 69.3081 24.524 69.2441 24.22C69.1801 23.916 69.0681 23.676 68.9081 23.5C68.7641 23.324 68.5721 23.204 68.3321 23.14C68.0921 23.06 67.8041 23.02 67.4681 23.02C66.2041 23.02 65.5721 23.788 65.5721 25.324V32.5H62.4521V20.692H65.3801V22.42C65.7801 21.636 66.2601 21.1 66.8201 20.812C67.3801 20.524 68.0521 20.38 68.8361 20.38C69.2361 20.38 69.5881 20.412 69.8921 20.476C70.2121 20.54 70.4921 20.652 70.7321 20.812C70.9881 20.956 71.2281 21.148 71.4521 21.388C71.6761 21.628 71.9001 21.916 72.1241 22.252C72.4441 21.596 72.8681 21.124 73.3961 20.836C73.9241 20.532 74.5641 20.38 75.3161 20.38C75.9081 20.38 76.4521 20.484 76.9481 20.692C77.4441 20.884 77.8681 21.164 78.2201 21.532C78.5721 21.884 78.8441 22.3 79.0361 22.78C79.2441 23.26 79.3481 23.772 79.3481 24.316V32.5H76.3001ZM88.3688 25.444C88.3528 25.012 88.2728 24.636 88.1288 24.316C88.0008 23.98 87.8248 23.708 87.6008 23.5C87.3768 23.276 87.1208 23.116 86.8328 23.02C86.5448 22.908 86.2488 22.852 85.9448 22.852C85.3208 22.852 84.7768 23.084 84.3128 23.548C83.8648 23.996 83.6088 24.628 83.5448 25.444H88.3688ZM83.4488 27.412C83.4968 28.308 83.7528 29.02 84.2168 29.548C84.6968 30.076 85.3208 30.34 86.0888 30.34C86.6008 30.34 87.0488 30.228 87.4328 30.004C87.8328 29.764 88.0888 29.436 88.2008 29.02H91.4168C91.0488 30.236 90.4088 31.172 89.4968 31.828C88.5848 32.484 87.4968 32.812 86.2328 32.812C82.2968 32.812 80.3288 30.668 80.3288 26.38C80.3288 25.468 80.4568 24.644 80.7128 23.908C80.9688 23.172 81.3368 22.54 81.8168 22.012C82.3128 21.484 82.9128 21.084 83.6168 20.812C84.3208 20.524 85.1288 20.38 86.0408 20.38C87.8648 20.38 89.2408 20.964 90.1688 22.132C91.1128 23.3 91.5848 25.06 91.5848 27.412H83.4488ZM100.106 32.5V25.348C100.106 24.436 99.9539 23.82 99.6499 23.5C99.3459 23.18 98.8259 23.02 98.0899 23.02C96.4739 23.02 95.6659 23.924 95.6659 25.732V32.5H92.5459V20.692H95.5219V22.42C95.8899 21.748 96.3779 21.244 96.9859 20.908C97.5939 20.556 98.3779 20.38 99.3379 20.38C99.8979 20.38 100.418 20.468 100.898 20.644C101.378 20.804 101.786 21.052 102.122 21.388C102.474 21.724 102.746 22.14 102.938 22.636C103.146 23.116 103.25 23.676 103.25 24.316V32.5H100.106ZM112.179 32.5V30.844C111.379 32.156 110.155 32.812 108.507 32.812C107.915 32.812 107.371 32.708 106.875 32.5C106.395 32.292 105.979 31.996 105.627 31.612C105.275 31.228 104.995 30.772 104.787 30.244C104.595 29.716 104.499 29.124 104.499 28.468V20.692H107.619V27.988C107.619 29.46 108.283 30.196 109.611 30.196C110.411 30.196 111.011 29.948 111.411 29.452C111.827 28.94 112.035 28.292 112.035 27.508V20.692H115.131V32.5H112.179ZM116.382 32.5V16.372H119.502V32.5H116.382ZM120.79 32.5V20.692H123.91V32.5H120.79ZM120.79 19.276V16.372H123.91V19.276H120.79ZM132.345 24.268C132.265 23.724 132.057 23.332 131.721 23.092C131.401 22.836 130.905 22.708 130.233 22.708C129.593 22.708 129.105 22.788 128.769 22.948C128.449 23.092 128.289 23.348 128.289 23.716C128.289 24.036 128.449 24.292 128.769 24.484C129.105 24.676 129.585 24.86 130.209 25.036C131.233 25.324 132.097 25.572 132.801 25.78C133.505 25.972 134.065 26.204 134.481 26.476C134.913 26.748 135.217 27.092 135.393 27.508C135.585 27.908 135.681 28.452 135.681 29.14C135.681 30.196 135.241 31.076 134.361 31.78C133.481 32.468 132.177 32.812 130.449 32.812C129.601 32.812 128.833 32.716 128.145 32.524C127.457 32.332 126.865 32.06 126.369 31.708C125.889 31.34 125.513 30.908 125.241 30.412C124.985 29.9 124.849 29.332 124.833 28.708H128.049C128.049 29.268 128.265 29.7 128.697 30.004C129.145 30.308 129.721 30.46 130.425 30.46C131.017 30.46 131.521 30.372 131.937 30.196C132.369 30.004 132.585 29.716 132.585 29.332C132.585 28.9 132.425 28.588 132.105 28.396C131.801 28.204 131.329 28.036 130.689 27.892C129.537 27.636 128.609 27.372 127.905 27.1C127.201 26.812 126.649 26.5 126.249 26.164C125.865 25.828 125.601 25.46 125.457 25.06C125.329 24.66 125.265 24.212 125.265 23.716C125.265 23.268 125.353 22.844 125.529 22.444C125.721 22.044 126.017 21.692 126.417 21.388C126.817 21.084 127.337 20.844 127.977 20.668C128.617 20.476 129.401 20.38 130.329 20.38C132.025 20.38 133.265 20.724 134.049 21.412C134.833 22.1 135.265 23.052 135.345 24.268H132.345ZM136.372 32.5V29.26H139.708V32.5H136.372Z" fill="white"/>
<path d="M141.406 23V16.112H143.226V23H141.406ZM141.406 15.286V13.592H143.226V15.286H141.406ZM148.413 23V18.828C148.413 18.296 148.324 17.9367 148.147 17.75C147.969 17.5633 147.666 17.47 147.237 17.47C146.294 17.47 145.823 17.9973 145.823 19.052V23H144.003V16.112H145.739V17.12C145.953 16.728 146.238 16.434 146.593 16.238C146.947 16.0327 147.405 15.93 147.965 15.93C148.291 15.93 148.595 15.9813 148.875 16.084C149.155 16.1773 149.393 16.322 149.589 16.518C149.794 16.714 149.953 16.9567 150.065 17.246C150.186 17.526 150.247 17.8527 150.247 18.226V23H148.413ZM154.237 21.698C154.676 21.698 155.04 21.516 155.329 21.152C155.628 20.788 155.777 20.312 155.777 19.724C155.777 18.2307 155.269 17.484 154.251 17.484C153.206 17.484 152.683 18.1933 152.683 19.612C152.683 20.228 152.828 20.732 153.117 21.124C153.407 21.5067 153.78 21.698 154.237 21.698ZM155.749 23L155.735 22.16C155.315 22.8413 154.676 23.182 153.817 23.182C153.379 23.182 152.977 23.098 152.613 22.93C152.249 22.762 151.937 22.5193 151.675 22.202C151.414 21.8847 151.209 21.4973 151.059 21.04C150.91 20.5827 150.835 20.0647 150.835 19.486C150.835 18.9633 150.896 18.4873 151.017 18.058C151.148 17.6193 151.335 17.2413 151.577 16.924C151.82 16.6067 152.114 16.364 152.459 16.196C152.814 16.0187 153.215 15.93 153.663 15.93C154.513 15.93 155.194 16.2893 155.707 17.008V13.592H157.499V23H155.749ZM162.757 18.884C162.748 18.632 162.701 18.4127 162.617 18.226C162.543 18.03 162.44 17.8713 162.309 17.75C162.179 17.6193 162.029 17.526 161.861 17.47C161.693 17.4047 161.521 17.372 161.343 17.372C160.979 17.372 160.662 17.5073 160.391 17.778C160.13 18.0393 159.981 18.408 159.943 18.884H162.757ZM159.887 20.032C159.915 20.5547 160.065 20.97 160.335 21.278C160.615 21.586 160.979 21.74 161.427 21.74C161.726 21.74 161.987 21.6747 162.211 21.544C162.445 21.404 162.594 21.2127 162.659 20.97H164.535C164.321 21.6793 163.947 22.2253 163.415 22.608C162.883 22.9907 162.249 23.182 161.511 23.182C159.215 23.182 158.067 21.9313 158.067 19.43C158.067 18.898 158.142 18.4173 158.291 17.988C158.441 17.5587 158.655 17.19 158.935 16.882C159.225 16.574 159.575 16.3407 159.985 16.182C160.396 16.014 160.867 15.93 161.399 15.93C162.463 15.93 163.266 16.2707 163.807 16.952C164.358 17.6333 164.633 18.66 164.633 20.032H159.887ZM166.899 23L164.435 16.112H166.465L167.907 20.662L169.363 16.112H171.281L168.803 23H166.899Z" fill="#5F6368"/>
</svg>
