<svg width="187" height="48" viewBox="0 0 187 48" fill="none" xmlns="http://www.w3.org/2000/svg">
<path d="M3.936 32H1.728V14.816H3.936L9.912 25.28H10.008L15.984 14.816H18.192V32H15.984V21.8L16.08 18.92H15.984L10.608 28.352H9.312L3.936 18.92H3.84L3.936 21.8V32ZM22.5223 28.4C22.5223 28.976 22.7623 29.456 23.2423 29.84C23.7383 30.224 24.3143 30.416 24.9703 30.416C25.8983 30.416 26.7223 30.072 27.4423 29.384C28.1783 28.696 28.5463 27.888 28.5463 26.96C27.8583 26.416 26.8983 26.144 25.6663 26.144C24.7703 26.144 24.0183 26.36 23.4103 26.792C22.8183 27.224 22.5223 27.76 22.5223 28.4ZM25.3783 19.856C27.0103 19.856 28.2983 20.296 29.2423 21.176C30.1863 22.04 30.6583 23.232 30.6583 24.752V32H28.5463V30.368H28.4503C27.5383 31.712 26.3223 32.384 24.8023 32.384C23.5063 32.384 22.4183 32 21.5383 31.232C20.6743 30.464 20.2423 29.504 20.2423 28.352C20.2423 27.136 20.6983 26.168 21.6103 25.448C22.5383 24.728 23.7703 24.368 25.3063 24.368C26.6183 24.368 27.6983 24.608 28.5463 25.088V24.584C28.5463 23.816 28.2423 23.168 27.6343 22.64C27.0263 22.096 26.3143 21.824 25.4983 21.824C24.2663 21.824 23.2903 22.344 22.5703 23.384L20.6263 22.16C21.6983 20.624 23.2823 19.856 25.3783 19.856ZM38.3115 30.368C39.3995 30.368 40.2875 29.976 40.9755 29.192C41.6955 28.408 42.0555 27.384 42.0555 26.12C42.0555 24.888 41.6955 23.872 40.9755 23.072C40.2715 22.272 39.3835 21.872 38.3115 21.872C37.2555 21.872 36.3675 22.272 35.6475 23.072C34.9275 23.872 34.5675 24.888 34.5675 26.12C34.5675 27.368 34.9275 28.384 35.6475 29.168C36.3675 29.968 37.2555 30.368 38.3115 30.368ZM38.2395 37.568C37.5835 37.568 36.9675 37.48 36.3915 37.304C35.8155 37.144 35.2875 36.912 34.8075 36.608C34.3435 36.304 33.9435 35.944 33.6075 35.528C33.2715 35.112 33.0155 34.648 32.8395 34.136L34.9275 33.272C35.1675 33.96 35.5835 34.512 36.1755 34.928C36.7675 35.344 37.4555 35.552 38.2395 35.552C39.4395 35.552 40.3755 35.192 41.0475 34.472C41.7195 33.752 42.0555 32.76 42.0555 31.496V30.368H41.9595C41.5435 30.992 40.9755 31.488 40.2555 31.856C39.5515 32.208 38.7835 32.384 37.9515 32.384C36.4155 32.384 35.0955 31.784 33.9915 30.584C32.9035 29.352 32.3595 27.864 32.3595 26.12C32.3595 24.376 32.9035 22.896 33.9915 21.68C35.0955 20.464 36.4155 19.856 37.9515 19.856C38.7835 19.856 39.5515 20.04 40.2555 20.408C40.9755 20.76 41.5435 21.248 41.9595 21.872H42.0555V20.24H44.1675V31.496C44.1675 33.384 43.6315 34.864 42.5595 35.936C41.4715 37.024 40.0315 37.568 38.2395 37.568ZM52.0224 32.384C50.2944 32.384 48.8704 31.792 47.7504 30.608C46.6304 29.424 46.0704 27.928 46.0704 26.12C46.0704 24.328 46.6144 22.84 47.7024 21.656C48.7904 20.456 50.1824 19.856 51.8784 19.856C53.6224 19.856 55.0064 20.424 56.0304 21.56C57.0704 22.68 57.5904 24.256 57.5904 26.288L57.5664 26.528H48.3264C48.3584 27.68 48.7424 28.608 49.4784 29.312C50.2144 30.016 51.0944 30.368 52.1184 30.368C53.5264 30.368 54.6304 29.664 55.4304 28.256L57.3984 29.216C56.8704 30.208 56.1344 30.984 55.1904 31.544C54.2624 32.104 53.2064 32.384 52.0224 32.384ZM48.4944 24.704H55.2384C55.1744 23.888 54.8384 23.216 54.2304 22.688C53.6384 22.144 52.8384 21.872 51.8304 21.872C50.9984 21.872 50.2784 22.128 49.6704 22.64C49.0784 23.152 48.6864 23.84 48.4944 24.704ZM61.8176 32H59.6096V20.24H61.7216V22.16H61.8176C62.0416 21.536 62.4976 21.008 63.1856 20.576C63.8896 20.128 64.5776 19.904 65.2496 19.904C65.8896 19.904 66.4336 20 66.8816 20.192L66.2096 22.328C65.9376 22.216 65.5056 22.16 64.9136 22.16C64.0816 22.16 63.3536 22.496 62.7296 23.168C62.1216 23.84 61.8176 24.624 61.8176 25.52V32ZM70.9204 32H68.7124V14.816H70.9204L76.8964 25.28H76.9924L82.9684 14.816H85.1764V32H82.9684V21.8L83.0644 18.92H82.9684L77.5924 28.352H76.2964L70.9204 18.92H70.8244L70.9204 21.8V32ZM93.5303 32.384C91.8023 32.384 90.3783 31.792 89.2583 30.608C88.1383 29.424 87.5783 27.928 87.5783 26.12C87.5783 24.328 88.1223 22.84 89.2103 21.656C90.2983 20.456 91.6903 19.856 93.3863 19.856C95.1303 19.856 96.5143 20.424 97.5383 21.56C98.5783 22.68 99.0983 24.256 99.0983 26.288L99.0743 26.528H89.8343C89.8663 27.68 90.2503 28.608 90.9863 29.312C91.7223 30.016 92.6023 30.368 93.6263 30.368C95.0343 30.368 96.1383 29.664 96.9383 28.256L98.9063 29.216C98.3783 30.208 97.6423 30.984 96.6983 31.544C95.7703 32.104 94.7143 32.384 93.5303 32.384ZM90.0023 24.704H96.7463C96.6823 23.888 96.3463 23.216 95.7383 22.688C95.1463 22.144 94.3463 21.872 93.3383 21.872C92.5063 21.872 91.7863 22.128 91.1783 22.64C90.5863 23.152 90.1943 23.84 90.0023 24.704ZM101.117 20.24H103.229V21.872H103.325C103.661 21.296 104.173 20.816 104.861 20.432C105.565 20.048 106.293 19.856 107.045 19.856C108.485 19.856 109.589 20.272 110.357 21.104C111.141 21.92 111.533 23.088 111.533 24.608V32H109.325V24.752C109.277 22.832 108.309 21.872 106.421 21.872C105.541 21.872 104.805 22.232 104.213 22.952C103.621 23.656 103.325 24.504 103.325 25.496V32H101.117V20.24ZM124.445 32H122.333V30.368H122.237C121.901 30.944 121.381 31.424 120.677 31.808C119.989 32.192 119.269 32.384 118.517 32.384C117.077 32.384 115.965 31.976 115.181 31.16C114.413 30.328 114.029 29.152 114.029 27.632V20.24H116.237V27.488C116.285 29.408 117.253 30.368 119.141 30.368C120.021 30.368 120.757 30.016 121.349 29.312C121.941 28.592 122.237 27.736 122.237 26.744V20.24H124.445V32ZM129.341 14.816V32H127.133V14.816H129.341ZM134.888 16.184C134.888 16.616 134.736 16.984 134.432 17.288C134.128 17.592 133.76 17.744 133.328 17.744C132.896 17.744 132.528 17.592 132.224 17.288C131.92 16.984 131.768 16.616 131.768 16.184C131.768 15.752 131.92 15.384 132.224 15.08C132.528 14.776 132.896 14.624 133.328 14.624C133.76 14.624 134.128 14.776 134.432 15.08C134.736 15.384 134.888 15.752 134.888 16.184ZM134.432 20.24V32H132.224V20.24H134.432ZM146.305 28.736C146.305 29.76 145.857 30.624 144.961 31.328C144.065 32.032 142.937 32.384 141.577 32.384C140.393 32.384 139.353 32.08 138.457 31.472C137.561 30.848 136.921 30.032 136.537 29.024L138.505 28.184C138.793 28.888 139.209 29.44 139.753 29.84C140.313 30.224 140.921 30.416 141.577 30.416C142.281 30.416 142.865 30.264 143.329 29.96C143.809 29.656 144.049 29.296 144.049 28.88C144.049 28.128 143.473 27.576 142.321 27.224L140.305 26.72C138.017 26.144 136.873 25.04 136.873 23.408C136.873 22.336 137.305 21.48 138.169 20.84C139.049 20.184 140.169 19.856 141.529 19.856C142.569 19.856 143.505 20.104 144.337 20.6C145.185 21.096 145.777 21.76 146.113 22.592L144.145 23.408C143.921 22.912 143.553 22.528 143.041 22.256C142.545 21.968 141.985 21.824 141.361 21.824C140.785 21.824 140.265 21.968 139.801 22.256C139.353 22.544 139.129 22.896 139.129 23.312C139.129 23.984 139.761 24.464 141.025 24.752L142.801 25.208C145.137 25.784 146.305 26.96 146.305 28.736Z" fill="#5F6368"/>
<path d="M153.008 11.976H156.928C157.357 11.976 157.759 12.046 158.132 12.186C158.505 12.3167 158.827 12.5033 159.098 12.746C159.378 12.9793 159.597 13.2547 159.756 13.572C159.915 13.8893 159.994 14.23 159.994 14.594C159.994 15.126 159.863 15.574 159.602 15.938C159.35 16.2927 159.033 16.5633 158.65 16.75V16.862C159.163 17.0487 159.574 17.3427 159.882 17.744C160.199 18.136 160.358 18.626 160.358 19.214C160.358 19.6433 160.269 20.0307 160.092 20.376C159.924 20.712 159.691 21.0013 159.392 21.244C159.093 21.4867 158.743 21.6733 158.342 21.804C157.95 21.9347 157.525 22 157.068 22H153.008V11.976ZM156.788 16.064C157.227 16.064 157.563 15.9473 157.796 15.714C158.039 15.4713 158.16 15.1867 158.16 14.86C158.16 14.5333 158.043 14.2533 157.81 14.02C157.577 13.7867 157.255 13.67 156.844 13.67H154.898V16.064H156.788ZM156.998 20.264C157.474 20.264 157.838 20.1473 158.09 19.914C158.342 19.6713 158.468 19.3633 158.468 18.99C158.468 18.6167 158.337 18.3087 158.076 18.066C157.824 17.814 157.446 17.688 156.942 17.688H154.898V20.264H156.998ZM163.703 13.768V16.092H167.721V17.884H163.703V20.208H168.169V22H161.813V11.976H168.169V13.768H163.703ZM172.034 22V13.768H169.234V11.976H176.724V13.768H173.924V22H172.034ZM180.079 11.976H182.235L186.001 22H183.915L183.089 19.606H179.225L178.399 22H176.313L180.079 11.976ZM182.473 17.87L181.577 15.364L181.213 14.146H181.101L180.737 15.364L179.841 17.87H182.473Z" fill="#5F6368"/>
</svg>
