<svg width="187" height="48" viewBox="0 0 187 48" fill="none" xmlns="http://www.w3.org/2000/svg">
<path d="M14.472 32V24.848C14.472 24.128 14.304 23.544 13.968 23.096C13.632 22.648 13.184 22.424 12.624 22.424C12.048 22.424 11.568 22.664 11.184 23.144C10.816 23.624 10.632 24.224 10.632 24.944V32H7.512V24.896C7.512 24.416 7.48 24.024 7.416 23.72C7.352 23.416 7.24 23.176 7.08 23C6.936 22.824 6.744 22.704 6.504 22.64C6.264 22.56 5.976 22.52 5.64 22.52C4.376 22.52 3.744 23.288 3.744 24.824V32H0.624V20.192H3.552V21.92C3.952 21.136 4.432 20.6 4.992 20.312C5.552 20.024 6.224 19.88 7.008 19.88C7.408 19.88 7.76 19.912 8.064 19.976C8.384 20.04 8.664 20.152 8.904 20.312C9.16 20.456 9.4 20.648 9.624 20.888C9.848 21.128 10.072 21.416 10.296 21.752C10.616 21.096 11.04 20.624 11.568 20.336C12.096 20.032 12.736 19.88 13.488 19.88C14.08 19.88 14.624 19.984 15.12 20.192C15.616 20.384 16.04 20.664 16.392 21.032C16.744 21.384 17.016 21.8 17.208 22.28C17.416 22.76 17.52 23.272 17.52 23.816V32H14.472ZM25.9406 26.216C25.7806 26.376 25.5486 26.504 25.2446 26.6C24.9406 26.696 24.5006 26.8 23.9246 26.912C23.0286 27.088 22.4126 27.312 22.0766 27.584C21.7406 27.856 21.5726 28.248 21.5726 28.76C21.5726 29.64 22.0766 30.08 23.0846 30.08C23.4846 30.08 23.8526 30.016 24.1886 29.888C24.5406 29.744 24.8366 29.56 25.0766 29.336C25.3326 29.096 25.5326 28.824 25.6766 28.52C25.8366 28.2 25.9166 27.864 25.9166 27.512L25.9406 26.216ZM26.1566 32C26.0606 31.696 25.9966 31.344 25.9646 30.944C25.5966 31.36 25.1086 31.696 24.5006 31.952C23.8926 32.192 23.1886 32.312 22.3886 32.312C21.0286 32.312 20.0286 32.016 19.3886 31.424C18.7646 30.816 18.4526 30.032 18.4526 29.072C18.4526 28.224 18.5886 27.552 18.8606 27.056C19.1326 26.544 19.5086 26.144 19.9886 25.856C20.4686 25.568 21.0366 25.36 21.6926 25.232C22.3646 25.088 23.0926 24.96 23.8766 24.848C24.6606 24.736 25.1886 24.592 25.4606 24.416C25.7326 24.224 25.8686 23.92 25.8686 23.504C25.8686 23.12 25.6846 22.824 25.3166 22.616C24.9646 22.392 24.4846 22.28 23.8766 22.28C23.1566 22.28 22.6366 22.44 22.3166 22.76C22.0126 23.08 21.8206 23.504 21.7406 24.032H18.8366C18.8526 23.424 18.9486 22.864 19.1246 22.352C19.3166 21.84 19.6126 21.4 20.0126 21.032C20.4286 20.664 20.9646 20.384 21.6206 20.192C22.2766 19.984 23.0766 19.88 24.0206 19.88C24.9486 19.88 25.7326 19.984 26.3726 20.192C27.0286 20.4 27.5486 20.704 27.9326 21.104C28.3326 21.488 28.6206 21.976 28.7966 22.568C28.9726 23.144 29.0606 23.8 29.0606 24.536V32H26.1566ZM35.9833 29.648C36.7513 29.648 37.3833 29.36 37.8793 28.784C38.3913 28.192 38.6473 27.392 38.6473 26.384C38.6473 23.856 37.7593 22.592 35.9833 22.592C34.2073 22.592 33.3193 23.792 33.3193 26.192C33.3193 27.248 33.5673 28.088 34.0633 28.712C34.5753 29.336 35.2153 29.648 35.9833 29.648ZM38.5513 30.416C38.3273 30.944 37.9193 31.36 37.3273 31.664C36.7513 31.952 36.0793 32.096 35.3113 32.096C34.3353 32.096 33.5113 31.928 32.8393 31.592C32.1833 31.24 31.6473 30.784 31.2313 30.224C30.8313 29.664 30.5353 29.016 30.3433 28.28C30.1673 27.544 30.0793 26.792 30.0793 26.024C30.0793 25.112 30.2153 24.28 30.4873 23.528C30.7593 22.76 31.1273 22.112 31.5913 21.584C32.0553 21.04 32.5993 20.624 33.2233 20.336C33.8473 20.032 34.5193 19.88 35.2393 19.88C36.7113 19.88 37.8153 20.472 38.5513 21.656V20.192H41.6713V32.12C41.6713 33.016 41.5193 33.8 41.2153 34.472C40.9113 35.16 40.4953 35.728 39.9673 36.176C39.4393 36.64 38.8153 36.992 38.0953 37.232C37.3753 37.472 36.6073 37.592 35.7913 37.592C34.9753 37.592 34.2153 37.472 33.5113 37.232C32.8073 37.008 32.1993 36.68 31.6873 36.248C31.1913 35.832 30.7993 35.32 30.5113 34.712C30.2233 34.104 30.0793 33.416 30.0793 32.648H32.9833C32.9833 33.368 33.2153 33.92 33.6793 34.304C34.1593 34.704 34.7913 34.904 35.5753 34.904C36.4073 34.904 37.1113 34.672 37.6873 34.208C38.2633 33.76 38.5513 33.144 38.5513 32.36V30.416ZM50.7047 24.944C50.6887 24.512 50.6087 24.136 50.4647 23.816C50.3367 23.48 50.1607 23.208 49.9367 23C49.7127 22.776 49.4567 22.616 49.1687 22.52C48.8807 22.408 48.5847 22.352 48.2807 22.352C47.6567 22.352 47.1127 22.584 46.6487 23.048C46.2007 23.496 45.9447 24.128 45.8807 24.944H50.7047ZM45.7847 26.912C45.8327 27.808 46.0887 28.52 46.5527 29.048C47.0327 29.576 47.6567 29.84 48.4247 29.84C48.9367 29.84 49.3847 29.728 49.7687 29.504C50.1687 29.264 50.4247 28.936 50.5367 28.52H53.7527C53.3847 29.736 52.7447 30.672 51.8327 31.328C50.9207 31.984 49.8327 32.312 48.5687 32.312C44.6327 32.312 42.6647 30.168 42.6647 25.88C42.6647 24.968 42.7927 24.144 43.0487 23.408C43.3047 22.672 43.6727 22.04 44.1527 21.512C44.6487 20.984 45.2487 20.584 45.9527 20.312C46.6567 20.024 47.4647 19.88 48.3767 19.88C50.2007 19.88 51.5767 20.464 52.5047 21.632C53.4487 22.8 53.9207 24.56 53.9207 26.912H45.7847ZM54.8818 32V20.192H57.8098V21.608C58.0658 21.208 58.3298 20.896 58.6018 20.672C58.8898 20.448 59.1778 20.28 59.4658 20.168C59.7698 20.04 60.0738 19.96 60.3778 19.928C60.6818 19.896 60.9938 19.88 61.3138 19.88H61.7218V23.072C61.4338 23.024 61.1458 23 60.8578 23C58.9538 23 58.0018 23.952 58.0018 25.856V32H54.8818ZM76.3001 32V24.848C76.3001 24.128 76.1321 23.544 75.7961 23.096C75.4601 22.648 75.0121 22.424 74.4521 22.424C73.8761 22.424 73.3961 22.664 73.0121 23.144C72.6441 23.624 72.4601 24.224 72.4601 24.944V32H69.3401V24.896C69.3401 24.416 69.3081 24.024 69.2441 23.72C69.1801 23.416 69.0681 23.176 68.9081 23C68.7641 22.824 68.5721 22.704 68.3321 22.64C68.0921 22.56 67.8041 22.52 67.4681 22.52C66.2041 22.52 65.5721 23.288 65.5721 24.824V32H62.4521V20.192H65.3801V21.92C65.7801 21.136 66.2601 20.6 66.8201 20.312C67.3801 20.024 68.0521 19.88 68.8361 19.88C69.2361 19.88 69.5881 19.912 69.8921 19.976C70.2121 20.04 70.4921 20.152 70.7321 20.312C70.9881 20.456 71.2281 20.648 71.4521 20.888C71.6761 21.128 71.9001 21.416 72.1241 21.752C72.4441 21.096 72.8681 20.624 73.3961 20.336C73.9241 20.032 74.5641 19.88 75.3161 19.88C75.9081 19.88 76.4521 19.984 76.9481 20.192C77.4441 20.384 77.8681 20.664 78.2201 21.032C78.5721 21.384 78.8441 21.8 79.0361 22.28C79.2441 22.76 79.3481 23.272 79.3481 23.816V32H76.3001ZM88.3688 24.944C88.3528 24.512 88.2728 24.136 88.1288 23.816C88.0008 23.48 87.8248 23.208 87.6008 23C87.3768 22.776 87.1208 22.616 86.8328 22.52C86.5448 22.408 86.2488 22.352 85.9448 22.352C85.3208 22.352 84.7768 22.584 84.3128 23.048C83.8648 23.496 83.6088 24.128 83.5448 24.944H88.3688ZM83.4488 26.912C83.4968 27.808 83.7528 28.52 84.2168 29.048C84.6968 29.576 85.3208 29.84 86.0888 29.84C86.6008 29.84 87.0488 29.728 87.4328 29.504C87.8328 29.264 88.0888 28.936 88.2008 28.52H91.4168C91.0488 29.736 90.4088 30.672 89.4968 31.328C88.5848 31.984 87.4968 32.312 86.2328 32.312C82.2968 32.312 80.3288 30.168 80.3288 25.88C80.3288 24.968 80.4568 24.144 80.7128 23.408C80.9688 22.672 81.3368 22.04 81.8168 21.512C82.3128 20.984 82.9128 20.584 83.6168 20.312C84.3208 20.024 85.1288 19.88 86.0408 19.88C87.8648 19.88 89.2408 20.464 90.1688 21.632C91.1128 22.8 91.5848 24.56 91.5848 26.912H83.4488ZM100.106 32V24.848C100.106 23.936 99.9539 23.32 99.6499 23C99.3459 22.68 98.8259 22.52 98.0899 22.52C96.4739 22.52 95.6659 23.424 95.6659 25.232V32H92.5459V20.192H95.5219V21.92C95.8899 21.248 96.3779 20.744 96.9859 20.408C97.5939 20.056 98.3779 19.88 99.3379 19.88C99.8979 19.88 100.418 19.968 100.898 20.144C101.378 20.304 101.786 20.552 102.122 20.888C102.474 21.224 102.746 21.64 102.938 22.136C103.146 22.616 103.25 23.176 103.25 23.816V32H100.106ZM112.179 32V30.344C111.379 31.656 110.155 32.312 108.507 32.312C107.915 32.312 107.371 32.208 106.875 32C106.395 31.792 105.979 31.496 105.627 31.112C105.275 30.728 104.995 30.272 104.787 29.744C104.595 29.216 104.499 28.624 104.499 27.968V20.192H107.619V27.488C107.619 28.96 108.283 29.696 109.611 29.696C110.411 29.696 111.011 29.448 111.411 28.952C111.827 28.44 112.035 27.792 112.035 27.008V20.192H115.131V32H112.179ZM116.382 32V15.872H119.502V32H116.382ZM120.79 32V20.192H123.91V32H120.79ZM120.79 18.776V15.872H123.91V18.776H120.79ZM132.345 23.768C132.265 23.224 132.057 22.832 131.721 22.592C131.401 22.336 130.905 22.208 130.233 22.208C129.593 22.208 129.105 22.288 128.769 22.448C128.449 22.592 128.289 22.848 128.289 23.216C128.289 23.536 128.449 23.792 128.769 23.984C129.105 24.176 129.585 24.36 130.209 24.536C131.233 24.824 132.097 25.072 132.801 25.28C133.505 25.472 134.065 25.704 134.481 25.976C134.913 26.248 135.217 26.592 135.393 27.008C135.585 27.408 135.681 27.952 135.681 28.64C135.681 29.696 135.241 30.576 134.361 31.28C133.481 31.968 132.177 32.312 130.449 32.312C129.601 32.312 128.833 32.216 128.145 32.024C127.457 31.832 126.865 31.56 126.369 31.208C125.889 30.84 125.513 30.408 125.241 29.912C124.985 29.4 124.849 28.832 124.833 28.208H128.049C128.049 28.768 128.265 29.2 128.697 29.504C129.145 29.808 129.721 29.96 130.425 29.96C131.017 29.96 131.521 29.872 131.937 29.696C132.369 29.504 132.585 29.216 132.585 28.832C132.585 28.4 132.425 28.088 132.105 27.896C131.801 27.704 131.329 27.536 130.689 27.392C129.537 27.136 128.609 26.872 127.905 26.6C127.201 26.312 126.649 26 126.249 25.664C125.865 25.328 125.601 24.96 125.457 24.56C125.329 24.16 125.265 23.712 125.265 23.216C125.265 22.768 125.353 22.344 125.529 21.944C125.721 21.544 126.017 21.192 126.417 20.888C126.817 20.584 127.337 20.344 127.977 20.168C128.617 19.976 129.401 19.88 130.329 19.88C132.025 19.88 133.265 20.224 134.049 20.912C134.833 21.6 135.265 22.552 135.345 23.768H132.345ZM136.372 32V28.76H139.708V32H136.372Z" fill="#5F6368"/>
<path d="M144.626 21.698C145.083 21.698 145.457 21.5067 145.746 21.124C146.035 20.732 146.18 20.228 146.18 19.612C146.18 18.1933 145.657 17.484 144.612 17.484C143.595 17.484 143.086 18.2307 143.086 19.724C143.086 20.312 143.231 20.788 143.52 21.152C143.819 21.516 144.187 21.698 144.626 21.698ZM141.364 23V13.592H143.156V17.008C143.669 16.2893 144.351 15.93 145.2 15.93C145.648 15.93 146.045 16.0187 146.39 16.196C146.745 16.364 147.043 16.6067 147.286 16.924C147.529 17.2413 147.711 17.6193 147.832 18.058C147.963 18.4873 148.028 18.9633 148.028 19.486C148.028 20.0647 147.953 20.5827 147.804 21.04C147.655 21.4973 147.449 21.8847 147.188 22.202C146.927 22.5193 146.609 22.762 146.236 22.93C145.872 23.098 145.475 23.182 145.046 23.182C144.187 23.182 143.548 22.8413 143.128 22.16L143.114 23H141.364ZM153.16 18.884C153.15 18.632 153.104 18.4127 153.02 18.226C152.945 18.03 152.842 17.8713 152.712 17.75C152.581 17.6193 152.432 17.526 152.264 17.47C152.096 17.4047 151.923 17.372 151.746 17.372C151.382 17.372 151.064 17.5073 150.794 17.778C150.532 18.0393 150.383 18.408 150.346 18.884H153.16ZM150.29 20.032C150.318 20.5547 150.467 20.97 150.738 21.278C151.018 21.586 151.382 21.74 151.83 21.74C152.128 21.74 152.39 21.6747 152.614 21.544C152.847 21.404 152.996 21.2127 153.062 20.97H154.938C154.723 21.6793 154.35 22.2253 153.818 22.608C153.286 22.9907 152.651 23.182 151.914 23.182C149.618 23.182 148.47 21.9313 148.47 19.43C148.47 18.898 148.544 18.4173 148.694 17.988C148.843 17.5587 149.058 17.19 149.338 16.882C149.627 16.574 149.977 16.3407 150.388 16.182C150.798 16.014 151.27 15.93 151.802 15.93C152.866 15.93 153.668 16.2707 154.21 16.952C154.76 17.6333 155.036 18.66 155.036 20.032H150.29ZM159.502 18.464H161.196V20.424C161.196 20.788 161.14 21.138 161.028 21.474C160.926 21.8007 160.758 22.0947 160.524 22.356C160.3 22.608 160.011 22.8087 159.656 22.958C159.311 23.1073 158.896 23.182 158.41 23.182C157.906 23.182 157.477 23.1073 157.122 22.958C156.768 22.8087 156.474 22.608 156.24 22.356C156.016 22.104 155.853 21.81 155.75 21.474C155.648 21.138 155.596 20.7833 155.596 20.41V14.25H157.388V16.112H161.196V17.4H157.388V20.228C157.388 20.6667 157.468 21.0073 157.626 21.25C157.794 21.4833 158.065 21.6 158.438 21.6C158.802 21.6 159.068 21.4833 159.236 21.25C159.414 21.0167 159.502 20.6853 159.502 20.256V18.464ZM166.044 19.626C165.951 19.7193 165.815 19.794 165.638 19.85C165.461 19.906 165.204 19.9667 164.868 20.032C164.345 20.1347 163.986 20.2653 163.79 20.424C163.594 20.5827 163.496 20.8113 163.496 21.11C163.496 21.6233 163.79 21.88 164.378 21.88C164.611 21.88 164.826 21.8427 165.022 21.768C165.227 21.684 165.4 21.5767 165.54 21.446C165.689 21.306 165.806 21.1473 165.89 20.97C165.983 20.7833 166.03 20.5873 166.03 20.382L166.044 19.626ZM166.17 23C166.114 22.8227 166.077 22.6173 166.058 22.384C165.843 22.6267 165.559 22.8227 165.204 22.972C164.849 23.112 164.439 23.182 163.972 23.182C163.179 23.182 162.595 23.0093 162.222 22.664C161.858 22.3093 161.676 21.852 161.676 21.292C161.676 20.7973 161.755 20.4053 161.914 20.116C162.073 19.8173 162.292 19.584 162.572 19.416C162.852 19.248 163.183 19.1267 163.566 19.052C163.958 18.968 164.383 18.8933 164.84 18.828C165.297 18.7627 165.605 18.6787 165.764 18.576C165.923 18.464 166.002 18.2867 166.002 18.044C166.002 17.82 165.895 17.6473 165.68 17.526C165.475 17.3953 165.195 17.33 164.84 17.33C164.42 17.33 164.117 17.4233 163.93 17.61C163.753 17.7967 163.641 18.044 163.594 18.352H161.9C161.909 17.9973 161.965 17.6707 162.068 17.372C162.18 17.0733 162.353 16.8167 162.586 16.602C162.829 16.3873 163.141 16.224 163.524 16.112C163.907 15.9907 164.373 15.93 164.924 15.93C165.465 15.93 165.923 15.9907 166.296 16.112C166.679 16.2333 166.982 16.4107 167.206 16.644C167.439 16.868 167.607 17.1527 167.71 17.498C167.813 17.834 167.864 18.2167 167.864 18.646V23H166.17Z" fill="#5F6368"/>
</svg>
