<svg width="1024" height="1024" viewBox="0 0 1024 1024" fill="none" xmlns="http://www.w3.org/2000/svg">
<rect width="1024" height="1024" fill="#0D0D0D"/>
<path d="M714 259.5H310C282.225 259.5 259.752 282.225 259.752 310L259.5 764.5L360.5 663.5H714C741.775 663.5 764.5 640.775 764.5 613V310C764.5 282.225 741.775 259.5 714 259.5ZM360.5 562.5V500.132L534.22 326.413C539.27 321.363 547.098 321.363 552.148 326.413L596.84 371.105C601.89 376.155 601.89 383.983 596.84 389.033L422.868 562.5H360.5ZM663.5 562.5H474.125L524.625 512H663.5V562.5Z" fill="#CACACA"/>
</svg>
